<?xml version="1.0" encoding="UTF-8" standalone="no"?>
<!-- Created with Inkscape (http://www.inkscape.org/) -->

<svg
   width="100.62382mm"
   height="35.094627mm"
   viewBox="0 0 100.62382 35.094627"
   version="1.1"
   id="svg1"
   xmlns:inkscape="http://www.inkscape.org/namespaces/inkscape"
   xmlns:sodipodi="http://sodipodi.sourceforge.net/DTD/sodipodi-0.dtd"
   xmlns="http://www.w3.org/2000/svg"
   xmlns:svg="http://www.w3.org/2000/svg">
  <sodipodi:namedview
     id="namedview1"
     pagecolor="#ffffff"
     bordercolor="#000000"
     borderopacity="0.25"
     inkscape:showpageshadow="2"
     inkscape:pageopacity="0.0"
     inkscape:pagecheckerboard="0"
     inkscape:deskcolor="#d1d1d1"
     inkscape:document-units="mm" />
  <defs
     id="defs1" />
  <g
     inkscape:label="Camada 1"
     inkscape:groupmode="layer"
     id="layer1"
     transform="translate(-50.98385,-107.37541)">
    <g
       id="g34"
       inkscape:label="g10"
       style="image-rendering:auto"
       transform="matrix(1.6490649,0,0,0.62459084,-30.802083,33.70365)">
      <path
         id="path32"
         style="fill:#fd097a;fill-opacity:1;stroke:#ffffff;stroke-width:0.174727"
         inkscape:highlight-color="#fff0f4"
         d="m 56.6969,149.445 h 2.5 2.5 l 2.014575,24.6881 c 0,0 -1.366821,-22.55893 -3.007682,-20.65437 -0.959988,1.11426 0.620054,8.28688 -1.506897,7.7619 -1.526775,-0.37684 -0.414462,-5.90883 -1.279903,-7.17976 -1.547926,-2.27318 -3.007681,16.70873 -3.007681,16.70873 z"
         sodipodi:nodetypes="ccccssscc" />
      <path
         id="path33"
         style="fill:#00bbfb;fill-opacity:1;stroke:none;stroke-width:0.175;stroke-opacity:1;image-rendering:auto"
         inkscape:highlight-color="#16eaf2"
         d="m 51.697,149.445 h 2.5 2.5 v 8 c 0,0 0.220663,7.59233 -1.063376,7.49689 -1.602452,-0.11911 0.03875,-10.79405 -1.516879,-10.10799 -0.818163,0.36083 -0.353783,5.51514 -1.296178,5.57998 C 51.778509,160.48557 51.697,157.445 51.697,157.445 Z"
         sodipodi:nodetypes="ccccssscc" />
      <path
         id="path34"
         style="fill:#fec400;fill-opacity:1;stroke:none;stroke-width:0.184337;stroke-opacity:1"
         inkscape:highlight-color="#f9fb15"
         d="m 61.700016,149.4472 h 2.496929 2.496929 l 0.02834,9.20346 c 0,0 0.365427,4.53178 -0.765166,4.51814 -1.621407,-0.0195 -0.172198,-8.42834 -1.816781,-8.14523 -1.216752,0.20947 0.263033,7.52091 -1.476707,8.21732 -1.154143,0.462 -0.963539,-4.87856 -0.963539,-4.87856 z"
         inkscape:label="path37"
         sodipodi:nodetypes="ccccssscc" />
      <ellipse
         style="fill:#fd097a;fill-opacity:1;stroke-width:0.144683"
         id="ellipse34"
         cx="59.200932"
         cy="163.34586"
         rx="0.79448193"
         ry="1.6817467" />
    </g>
    <path
       style="fill:#000000;fill-opacity:1"
       d="m 52.019168,126.37823 -1.035317,-1.32608 v -5.80486 -5.80487 l 0.09215,-0.22111 c 0.131926,-0.31658 1.917656,-2.5925 2.131256,-2.71631 l 0.155121,-0.0899 13.754071,5e-4 13.754071,4.9e-4 0.975278,1.22572 0.975278,1.22572 -0.0028,6.14699 -0.0028,6.14698 -0.955213,1.251 -0.955212,1.25099 -10.510167,-7.7e-4 c -5.780591,-4.2e-4 -14.602867,0.0547 -14.612768,0.042 -0.01854,-0.0238 -0.114448,-0.46712 1.006096,-1.71081 l 0.53481,-0.59358 13.859664,-0.0399 h 9.641639 l 0.264427,-0.29523 c 0.145434,-0.16238 0.361369,-0.40616 0.479853,-0.54174 l 0.215427,-0.2465 1.9e-5,-5.52845 2e-5,-5.52846 -0.474428,-0.60747 -0.474427,-0.60747 h -5.810869 c -3.195978,0 -8.954648,0.0132 -12.797044,0.0294 l -6.986176,0.0295 v 4.61396 4.61396 h 10.755569 10.755569 l 0.128761,-0.15149 0.128762,-0.15149 0.0024,-3.08784 c 0.0022,-2.86528 0.0068,-3.10141 0.06417,-3.27613 0.07683,-0.2341 0.346921,-0.55166 0.52857,-0.62148 0.08362,-0.0321 0.377106,-0.0526 0.755112,-0.0526 0.596203,0 0.624747,0.004 0.797513,0.11455 0.09855,0.063 0.226137,0.18738 0.28353,0.27639 0.209028,0.3242 0.205802,0.26031 0.205591,4.07255 -1.23e-4,2.22838 -0.01282,3.53285 -0.0354,3.63715 -0.06067,0.28025 -0.240972,0.5699 -0.447006,0.71811 l -0.189593,0.13639 -12.08221,0.0115 c -11.109798,0.0106 -12.096687,0.006 -12.262091,-0.0609 -0.238248,-0.0959 -0.431851,-0.31612 -0.550534,-0.62617 l -0.0969,-0.25315 -0.0079,-2.74024 -0.0079,-2.74023 -0.112705,-0.0768 c -0.344582,-0.23469 -1.052335,-0.27394 -1.517413,-0.0841 l -0.232681,0.095 v 4.01224 4.01225 l 0.35392,0.45249 0.35392,0.4525 h 2.242922 c 1.233607,0 2.375489,0.0315 2.38904,0.0489 0.01355,0.0174 -0.99916,1.36409 -1.512177,2.10701 l -0.129786,0.18795 h -1.373933 -1.373761 z m 26.648306,-8.20784 c 0.231088,-0.19223 0.307117,-0.37851 0.307117,-0.75248 0,-0.35758 -0.03907,-0.45797 -0.272583,-0.70043 -0.116772,-0.12125 -0.154523,-0.13523 -0.365137,-0.13523 -0.21109,0 -0.248328,0.0139 -0.367367,0.13687 -0.344392,0.35585 -0.381578,0.91516 -0.08755,1.31681 0.201397,0.27512 0.545595,0.33404 0.78552,0.13446 z m -19.657857,0.21912 c -0.195962,-0.0894 -0.437111,-0.37172 -0.531823,-0.62272 -0.148476,-0.39348 -0.08517,-0.91755 0.154828,-1.28178 0.05127,-0.0778 0.181695,-0.19721 0.28984,-0.26534 l 0.196628,-0.12387 h 7.514756 c 6.294552,0 7.541399,0.01 7.678841,0.0611 0.09386,0.035 0.232455,0.13835 0.32383,0.24154 0.506277,0.57171 0.406154,1.53514 -0.203992,1.9629 -0.10565,0.0741 -0.513748,0.0786 -7.695265,0.086 -6.628255,0.007 -7.601833,-5e-4 -7.727643,-0.0579 z"
       id="path35"
       sodipodi:nodetypes="ccccsscccccccccssscccsscccccsccccccccsscscsssscscscccsscccccszsccccsssscsscssscscssccc" />
    <path
       id="path36"
       style="fill:#000000;stroke-width:0.994253"
       d="m 129.73799,107.37541 -1.08366,0.0787 -1.08417,0.0787 -1.50792,3.40015 c -0.82942,1.87009 -1.5146,3.60613 -1.5229,3.85787 -0.0118,0.36044 0.20448,0.45773 1.01958,0.45773 h 1.03507 l 0.98909,-2.35857 c 0.54389,-1.29713 1.0551,-2.29325 1.13585,-2.21347 0.0807,0.0798 0.64686,1.31778 1.25832,2.75088 l 1.11208,2.60581 -3.34864,0.004 c -1.84175,0.002 -3.47997,0.0905 -3.64008,0.19617 -0.45073,0.29751 -0.9423,1.35068 -0.76378,1.63623 0.0958,0.1533 2.27862,0.25644 5.43636,0.25644 4.28898,0 5.27616,-0.067 5.27616,-0.3581 0,-0.19693 -0.97037,-2.61578 -2.15594,-5.37507 z m -25.50283,0.0266 -1.60611,3.72403 c -0.88332,2.0482 -1.55008,3.81367 -1.48156,3.92327 0.0685,0.10961 0.57181,0.19923 1.1188,0.19923 h 0.99477 l 0.88418,-2.1578 c 0.48632,-1.18679 0.96663,-2.25264 1.06764,-2.36827 0.14985,-0.17156 2.37814,4.66611 2.37814,5.16308 0,0.081 -1.54108,0.14764 -3.42459,0.14764 -3.23893,0 -3.44691,0.0315 -3.83646,0.58133 -0.22653,0.31971 -0.411862,0.7905 -0.411862,1.04621 0,0.4304 0.402712,0.46486 5.423962,0.46486 3.53899,0 5.42395,-0.0937 5.42395,-0.26921 0,-0.34889 -3.97972,-9.69832 -4.31084,-10.12744 -0.13876,-0.17981 -0.69486,-0.32693 -1.2361,-0.32693 z m -16.091011,0.13078 -0.08733,0.75604 c -0.0496,0.42955 0.0647,0.85147 0.264584,0.97673 0.193553,0.12129 1.524239,0.22279 2.957442,0.22477 2.565504,0.004 2.617738,0.0162 3.365169,0.80713 1.372987,1.45294 1.276625,4.05616 -0.192236,5.19832 -0.584116,0.45419 -1.070119,0.53741 -3.147095,0.53741 -1.35092,0 -2.644577,0.0711 -2.87476,0.15835 -0.415763,0.15772 -0.588711,1.41646 -0.241846,1.75935 0.287539,0.28424 5.545652,0.19845 6.354651,-0.1037 1.846569,-0.6897 3.242715,-2.87621 3.252515,-5.09361 0.0073,-1.66246 -0.827557,-3.3405 -2.200383,-4.42133 -1.007413,-0.79289 -1.042696,-0.79946 -4.233333,-0.79946 z m 25.532291,0 c -1.04439,0 -1.20159,0.0745 -1.27796,0.60738 -0.0479,0.33413 -0.0218,0.7755 0.0579,0.98082 0.15901,0.40961 1.65601,0.50644 2.23346,0.14457 0.19988,-0.12526 0.31418,-0.54718 0.26458,-0.97673 -0.0819,-0.70912 -0.16149,-0.75604 -1.27796,-0.75604 z m 2.24896,0 -0.0724,5.06652 c -0.0499,3.5158 0.0209,5.17689 0.23099,5.42718 0.37285,0.44406 1.34463,0.46945 1.7725,0.0465 0.22015,-0.21763 0.31781,-1.58094 0.31781,-4.44637 v -4.1322 l 1.38906,-0.004 c 1.73054,-0.005 2.11699,-0.23663 2.00557,-1.2015 l -0.0873,-0.75605 h -2.77813 z" />
    <path
       id="path39"
       style="fill:#000000;stroke-width:0.993484"
       d="m 126.34,123.32863 -0.99219,0.0805 -0.99219,0.0811 -0.0811,1.4052 c -0.0446,0.77283 -0.0186,1.56608 0.0579,1.76273 0.0814,0.20925 0.52653,0.35755 1.07332,0.35755 h 0.93431 v -1.84332 z m 11.39207,5e-4 -0.0734,3.56782 -0.0739,3.56782 -2.63136,-3.55252 c -2.58137,-3.485 -2.6505,-3.55251 -3.63803,-3.55251 -0.71671,0 -1.00665,0.11234 -1.00665,0.39019 0,0.33171 4.14069,6.11814 6.69158,9.35129 0.68581,0.8692 0.90325,0.9832 1.74253,0.91401 l 0.9586,-0.0791 v -5.22292 -5.22294 l -0.98444,-0.0805 z m -20.67626,0.0612 c -0.47361,-0.003 -1.07271,0.009 -1.85415,0.0266 -3.19947,0.0717 -3.28345,0.0889 -3.36775,0.67581 -0.16693,1.16225 0.32188,1.35623 3.41116,1.35623 2.65862,0 2.89226,0.0414 3.27473,0.58044 0.54435,0.76706 0.51953,1.14133 -0.1173,1.76988 -0.46439,0.45834 -0.88184,0.52229 -3.41116,0.52229 -2.38404,0 -2.90987,0.0715 -3.04271,0.41315 -0.2086,0.53654 -0.2086,4.3824 0,4.91894 0.10136,0.26071 0.48118,0.41314 1.02991,0.41314 1.03268,0 1.19062,-0.29736 1.19062,-2.24117 v -1.41488 h 1.29915 1.29966 l 1.14257,1.82802 c 1.08297,1.73219 1.19454,1.82803 2.12493,1.82803 0.54001,0 1.04577,-0.10206 1.12397,-0.22698 0.0782,-0.12491 -0.38382,-1.03393 -1.02682,-2.02031 l -1.16892,-1.79385 0.90021,-0.73243 c 1.69138,-1.37607 1.50066,-4.06791 -0.37466,-5.29282 -0.71881,-0.46949 -1.01261,-0.60248 -2.43344,-0.61002 z m 30.69631,0.008 c -1.03184,0.008 -1.48995,0.0938 -1.60868,0.27849 -0.3603,0.56043 -0.27504,9.97446 0.0935,10.33824 0.17463,0.17236 0.56721,0.31368 0.87281,0.31368 1.08409,0 1.19062,-0.42418 1.19062,-4.74042 v -4.11407 l 1.65365,-0.0776 1.65365,-0.0781 v -0.91401 -0.91401 l -2.62362,-0.075 c -0.48024,-0.0138 -0.88801,-0.02 -1.23196,-0.0174 z m -42.8134,0.005 c -0.43092,-0.004 -0.95791,0.004 -1.61748,0.0184 l -3.0427,0.0689 -0.0822,0.84006 c -0.10034,1.02462 0.10945,1.09255 3.64732,1.18434 2.34266,0.0607 2.52683,0.10533 2.81895,0.685 0.4167,0.82687 -0.0215,2.08022 -0.78807,2.25443 -0.31288,0.0712 -1.70005,0.1586 -3.0825,0.19433 l -2.51354,0.0648 -0.077,2.32992 c -0.0425,1.28129 -0.0163,2.48584 0.0579,2.67675 0.077,0.19802 0.53612,0.34683 1.06919,0.34683 h 0.93431 v -1.66991 -1.6694 l 2.05052,-0.1015 c 3.32416,-0.16412 4.62504,-1.17174 4.62504,-3.58209 0,-1.53181 -0.48451,-2.42204 -1.72909,-3.17763 -0.54985,-0.33381 -0.97792,-0.4508 -2.27067,-0.46313 z m 38.86378,0.0872 c -1.11646,0 -1.19606,0.0473 -1.27796,0.75539 -0.0496,0.42889 0.0647,0.85015 0.26458,0.97522 0.19355,0.1211 0.64958,0.22034 1.01338,0.22034 0.99816,0 1.37546,-0.35298 1.27796,-1.19556 -0.0819,-0.70802 -0.16149,-0.75539 -1.27796,-0.75539 z m -18.14825,4.03196 c -0.19978,-9.9e-4 -0.45652,0.089 -0.786,0.23718 -0.62548,0.28126 -0.64492,0.37413 -0.64492,3.12458 0,1.55907 0.0792,2.91305 0.17622,3.00879 0.097,0.0957 0.57378,0.17393 1.05885,0.17393 h 0.8816 v -3.14192 c 0,-2.57001 -0.0864,-3.39874 -0.68575,-3.40256 z m 5.97483,2.93178 c -0.10102,-0.008 -0.2129,-0.006 -0.33693,0.006 l -0.85111,0.0811 -0.0785,1.77957 -0.0786,1.77906 1.00459,-0.0816 c 0.98442,-0.0802 1.00641,-0.1049 1.08831,-1.23586 0.12166,-1.6806 -0.0406,-2.27063 -0.74776,-2.32839 z" />
  </g>
</svg>
